<svg width="34" height="35" viewBox="0 0 34 35" fill="none" xmlns="http://www.w3.org/2000/svg">
<rect y="0.689941" width="34" height="34" rx="17" fill="url(#paint0_linear_191_3059)"/>
<g filter="url(#filter0_i_191_3059)">
<rect x="1" y="1.68994" width="32" height="32" rx="16" fill="#070719"/>
<g clip-path="url(#clip0_191_3059)">
<path d="M18.232 23.4059V17.7359H20.388L20.71 15.5239H18.232V14.1099C18.232 13.7552 18.3113 13.4939 18.47 13.3259C18.6567 13.1299 18.9927 13.0319 19.478 13.0319H20.794V11.0579C20.6447 11.0392 20.4113 11.0205 20.094 11.0019C19.6833 10.9832 19.2727 10.9739 18.862 10.9739C18.2273 10.9739 17.6673 11.0859 17.182 11.3099C16.6967 11.5339 16.321 11.8652 16.055 12.3039C15.789 12.7425 15.656 13.2699 15.656 13.8859V15.5239H13.5V17.7359H15.656V23.4059H18.232Z" fill="white"/>
</g>
</g>
<defs>
<filter id="filter0_i_191_3059" x="1" y="-0.310059" width="32" height="34" filterUnits="userSpaceOnUse" color-interpolation-filters="sRGB">
<feFlood flood-opacity="0" result="BackgroundImageFix"/>
<feBlend mode="normal" in="SourceGraphic" in2="BackgroundImageFix" result="shape"/>
<feColorMatrix in="SourceAlpha" type="matrix" values="0 0 0 0 0 0 0 0 0 0 0 0 0 0 0 0 0 0 127 0" result="hardAlpha"/>
<feOffset dy="-2"/>
<feGaussianBlur stdDeviation="6"/>
<feComposite in2="hardAlpha" operator="arithmetic" k2="-1" k3="1"/>
<feColorMatrix type="matrix" values="0 0 0 0 0.239216 0 0 0 0 0.588235 0 0 0 0 1 0 0 0 0.4 0"/>
<feBlend mode="normal" in2="shape" result="effect1_innerShadow_191_3059"/>
</filter>
<linearGradient id="paint0_linear_191_3059" x1="0" y1="17.6899" x2="34" y2="17.6899" gradientUnits="userSpaceOnUse">
<stop stop-color="#3A5AFF"/>
<stop offset="1" stop-color="#5EBBFF"/>
</linearGradient>
<clipPath id="clip0_191_3059">
<rect width="14" height="14" fill="white" transform="matrix(1 0 0 -1 10 24.1899)"/>
</clipPath>
</defs>
</svg>
