<svg width="34" height="35" viewBox="0 0 34 35" fill="none" xmlns="http://www.w3.org/2000/svg">
<rect y="0.689941" width="34" height="34" rx="17" fill="url(#paint0_linear_191_3069)"/>
<g filter="url(#filter0_i_191_3069)">
<rect x="1" y="1.68994" width="32" height="32" rx="16" fill="#070719"/>
<g clip-path="url(#clip0_191_3069)">
<path d="M14.4529 10.7359C13.7435 10.7359 13.0855 10.9133 12.4789 11.2679C11.8909 11.6133 11.4242 12.0799 11.0789 12.6679C10.7242 13.2746 10.5469 13.9326 10.5469 14.6419V19.7379C10.5469 20.4473 10.7242 21.1053 11.0789 21.7119C11.4242 22.2999 11.8909 22.7666 12.4789 23.1119C13.0855 23.4666 13.7435 23.6439 14.4529 23.6439H19.5489C20.2582 23.6439 20.9162 23.4666 21.5229 23.1119C22.1109 22.7666 22.5775 22.2999 22.9229 21.7119C23.2775 21.1053 23.4549 20.4473 23.4549 19.7379V14.6419C23.4549 13.9326 23.2775 13.2746 22.9229 12.6679C22.5775 12.0799 22.1109 11.6133 21.5229 11.2679C20.9162 10.9133 20.2582 10.7359 19.5489 10.7359H14.4529ZM20.4029 13.1159C20.5895 13.1159 20.7482 13.1813 20.8789 13.3119C21.0095 13.4426 21.0749 13.6013 21.0749 13.7879C21.0749 13.9746 21.0095 14.1356 20.8789 14.2709C20.7482 14.4063 20.5895 14.4739 20.4029 14.4739C20.2162 14.4739 20.0552 14.4063 19.9199 14.2709C19.7845 14.1356 19.7169 13.9746 19.7169 13.7879C19.7169 13.6013 19.7845 13.4426 19.9199 13.3119C20.0552 13.1813 20.2162 13.1159 20.4029 13.1159ZM17.0009 13.7879C17.6169 13.7879 18.1862 13.9396 18.7089 14.2429C19.2315 14.5463 19.6445 14.9593 19.9479 15.4819C20.2512 16.0046 20.4029 16.5739 20.4029 17.1899C20.4029 17.8059 20.2512 18.3729 19.9479 18.8909C19.6445 19.4089 19.2315 19.8196 18.7089 20.1229C18.1862 20.4263 17.6169 20.5779 17.0009 20.5779C16.3849 20.5779 15.8179 20.4263 15.2999 20.1229C14.7819 19.8196 14.3712 19.4089 14.0679 18.8909C13.7645 18.3729 13.6129 17.8059 13.6129 17.1899C13.6129 16.5739 13.7645 16.0046 14.0679 15.4819C14.3712 14.9593 14.7819 14.5463 15.2999 14.2429C15.8179 13.9396 16.3849 13.7879 17.0009 13.7879ZM17.0009 14.8099C16.7115 14.8099 16.4082 14.8706 16.0909 14.9919C15.7829 15.1319 15.5239 15.3069 15.3139 15.5169C15.1039 15.7269 14.9335 15.9813 14.8029 16.2799C14.6815 16.5973 14.6209 16.9006 14.6209 17.1899C14.6209 17.4793 14.6815 17.7826 14.8029 18.0999C14.9429 18.4079 15.1155 18.6646 15.3209 18.8699C15.5262 19.0753 15.7829 19.2479 16.0909 19.3879C16.4082 19.5093 16.7115 19.5699 17.0009 19.5699C17.2902 19.5699 17.5935 19.5093 17.9109 19.3879C18.2095 19.2573 18.4639 19.0869 18.6739 18.8769C18.8839 18.6669 19.0589 18.4079 19.1989 18.0999C19.3202 17.7826 19.3809 17.4793 19.3809 17.1899C19.3809 16.9006 19.3202 16.5973 19.1989 16.2799C19.0775 15.9813 18.9072 15.7223 18.6879 15.5029C18.4685 15.2836 18.2095 15.1133 17.9109 14.9919C17.5935 14.8706 17.2902 14.8099 17.0009 14.8099Z" fill="white"/>
</g>
</g>
<defs>
<filter id="filter0_i_191_3069" x="1" y="-0.310059" width="32" height="34" filterUnits="userSpaceOnUse" color-interpolation-filters="sRGB">
<feFlood flood-opacity="0" result="BackgroundImageFix"/>
<feBlend mode="normal" in="SourceGraphic" in2="BackgroundImageFix" result="shape"/>
<feColorMatrix in="SourceAlpha" type="matrix" values="0 0 0 0 0 0 0 0 0 0 0 0 0 0 0 0 0 0 127 0" result="hardAlpha"/>
<feOffset dy="-2"/>
<feGaussianBlur stdDeviation="6"/>
<feComposite in2="hardAlpha" operator="arithmetic" k2="-1" k3="1"/>
<feColorMatrix type="matrix" values="0 0 0 0 0.239216 0 0 0 0 0.588235 0 0 0 0 1 0 0 0 0.4 0"/>
<feBlend mode="normal" in2="shape" result="effect1_innerShadow_191_3069"/>
</filter>
<linearGradient id="paint0_linear_191_3069" x1="0" y1="17.6899" x2="34" y2="17.6899" gradientUnits="userSpaceOnUse">
<stop stop-color="#3A5AFF"/>
<stop offset="1" stop-color="#5EBBFF"/>
</linearGradient>
<clipPath id="clip0_191_3069">
<rect width="14" height="14" fill="white" transform="matrix(1 0 0 -1 10 24.1899)"/>
</clipPath>
</defs>
</svg>
