<svg width="34" height="35" viewBox="0 0 34 35" fill="none" xmlns="http://www.w3.org/2000/svg">
<rect y="0.689941" width="34" height="34" rx="17" fill="url(#paint0_linear_191_3074)"/>
<g filter="url(#filter0_i_191_3074)">
<rect x="1" y="1.68994" width="32" height="32" rx="16" fill="#070719"/>
<g clip-path="url(#clip0_191_3074)">
<path d="M10.3926 12.4299C10.3926 12.0006 10.5372 11.6506 10.8266 11.3799C11.1159 11.1093 11.5032 10.9739 11.9886 10.9739C12.4739 10.9739 12.8612 11.1116 13.1506 11.3869C13.4399 11.6623 13.5846 12.0239 13.5846 12.4719C13.5846 12.8733 13.4352 13.2116 13.1366 13.4869C12.8379 13.7623 12.4506 13.8999 11.9746 13.8999H11.9606C11.4846 13.8999 11.1042 13.7599 10.8196 13.4799C10.5349 13.1999 10.3926 12.8499 10.3926 12.4299ZM10.5606 23.5599V15.0619H13.3886V23.5599H10.5606ZM14.9566 23.5599H17.7986V18.8139C17.7986 18.5153 17.8312 18.2866 17.8966 18.1279C18.0086 17.8386 18.1906 17.5936 18.4426 17.3929C18.6946 17.1923 18.9979 17.0919 19.3526 17.0919C20.3046 17.0919 20.7806 17.7359 20.7806 19.0239V23.5599H23.6086V18.6879C23.6086 17.4186 23.3122 16.4643 22.7196 15.8249C22.1269 15.1856 21.3406 14.8659 20.3606 14.8659C19.2499 14.8659 18.3959 15.3326 17.7986 16.2659V16.2939H17.7846L17.7986 16.2659V15.0619H14.9566C14.9752 15.4166 14.9846 16.2613 14.9846 17.5959C14.9846 18.3146 14.9799 19.7286 14.9706 21.8379L14.9566 23.5599Z" fill="white"/>
</g>
</g>
<defs>
<filter id="filter0_i_191_3074" x="1" y="-0.310059" width="32" height="34" filterUnits="userSpaceOnUse" color-interpolation-filters="sRGB">
<feFlood flood-opacity="0" result="BackgroundImageFix"/>
<feBlend mode="normal" in="SourceGraphic" in2="BackgroundImageFix" result="shape"/>
<feColorMatrix in="SourceAlpha" type="matrix" values="0 0 0 0 0 0 0 0 0 0 0 0 0 0 0 0 0 0 127 0" result="hardAlpha"/>
<feOffset dy="-2"/>
<feGaussianBlur stdDeviation="6"/>
<feComposite in2="hardAlpha" operator="arithmetic" k2="-1" k3="1"/>
<feColorMatrix type="matrix" values="0 0 0 0 0.239216 0 0 0 0 0.588235 0 0 0 0 1 0 0 0 0.4 0"/>
<feBlend mode="normal" in2="shape" result="effect1_innerShadow_191_3074"/>
</filter>
<linearGradient id="paint0_linear_191_3074" x1="0" y1="17.6899" x2="34" y2="17.6899" gradientUnits="userSpaceOnUse">
<stop stop-color="#3A5AFF"/>
<stop offset="1" stop-color="#5EBBFF"/>
</linearGradient>
<clipPath id="clip0_191_3074">
<rect width="14" height="14" fill="white" transform="matrix(1 0 0 -1 10 24.1899)"/>
</clipPath>
</defs>
</svg>
