<svg width="32" height="31" viewBox="0 0 32 31" fill="none" xmlns="http://www.w3.org/2000/svg">
<rect x="0.203125" y="0.518433" width="30.8871" height="30.4459" rx="4.41244" fill="#272B34"/>
<path d="M14.6919 15.7421L11.0032 15.7421M22.8421 15.3235C22.9206 15.3617 22.9867 15.4212 23.033 15.4952C23.0792 15.5692 23.1037 15.6547 23.1036 15.742C23.1036 15.8293 23.079 15.9148 23.0326 15.9887C22.9862 16.0627 22.92 16.1221 22.8415 16.1602L8.79125 22.9265C8.70724 22.9669 8.61302 22.9812 8.52081 22.9674C8.4286 22.9536 8.34266 22.9124 8.27414 22.8492C8.20562 22.786 8.15768 22.7036 8.13653 22.6128C8.11539 22.522 8.12202 22.427 8.15556 22.34L10.6288 15.9087C10.6701 15.8015 10.6701 15.6828 10.6288 15.5755L8.15618 9.14367C8.12293 9.05679 8.1165 8.96193 8.13772 8.87135C8.15893 8.78077 8.20682 8.69863 8.2752 8.63555C8.34358 8.57247 8.4293 8.53134 8.52129 8.51748C8.61328 8.50361 8.70732 8.51765 8.79125 8.55778L22.8421 15.3235Z" stroke="white" stroke-width="1.48695" stroke-linecap="round" stroke-linejoin="round"/>
</svg>
