
<svg width="26" height="25" viewBox="0 0 26 25" fill="none" xmlns="http://www.w3.org/2000/svg">
<path d="M20.5349 3.22402C20.3816 3.17291 20.3816 2.9564 20.5349 2.90529L21.435 2.60561C21.6329 2.53964 21.8126 2.42851 21.9601 2.281C22.1075 2.1335 22.2186 1.95368 22.2844 1.75581L22.5842 0.8563C22.6353 0.702974 22.8518 0.702974 22.9029 0.8563L23.2026 1.75628C23.2686 1.95411 23.3798 2.13387 23.5273 2.28129C23.6748 2.42871 23.8546 2.53975 24.0525 2.60561L24.9521 2.90529C24.9857 2.91631 25.015 2.93765 25.0357 2.96627C25.0564 2.99488 25.0676 3.02932 25.0676 3.06465C25.0676 3.09999 25.0564 3.13442 25.0357 3.16304C25.015 3.19166 24.9857 3.213 24.9521 3.22402L24.0521 3.5237C23.8543 3.58962 23.6745 3.70069 23.5271 3.84811C23.3796 3.99552 23.2686 4.17525 23.2026 4.37303L22.9029 5.27301C22.8919 5.30658 22.8706 5.33582 22.8419 5.35655C22.8133 5.37727 22.7789 5.38843 22.7435 5.38843C22.7082 5.38843 22.6738 5.37727 22.6451 5.35655C22.6165 5.33582 22.5952 5.30658 22.5842 5.27301L22.2844 4.37303C22.2185 4.17525 22.1074 3.99552 21.96 3.84811C21.8126 3.70069 21.6328 3.58962 21.435 3.5237L20.5349 3.22402ZM18.1656 5.01886C18.1454 5.0122 18.1279 4.99936 18.1155 4.98218C18.1031 4.965 18.0964 4.94434 18.0964 4.92315C18.0964 4.90195 18.1031 4.8813 18.1155 4.86411C18.1279 4.84693 18.1454 4.8341 18.1656 4.82744L18.7055 4.64763C18.9462 4.56725 19.1349 4.37861 19.2153 4.13793L19.3951 3.59804C19.4018 3.57792 19.4146 3.56041 19.4318 3.548C19.449 3.53559 19.4696 3.52891 19.4908 3.52891C19.512 3.52891 19.5327 3.53559 19.5499 3.548C19.567 3.56041 19.5799 3.57792 19.5865 3.59804L19.7664 4.13793C19.8059 4.25663 19.8726 4.36449 19.9611 4.45296C20.0495 4.54143 20.1574 4.60808 20.2761 4.64763L20.8161 4.82744C20.8362 4.8341 20.8537 4.84693 20.8661 4.86411C20.8785 4.8813 20.8852 4.90195 20.8852 4.92315C20.8852 4.94434 20.8785 4.965 20.8661 4.98218C20.8537 4.99936 20.8362 5.0122 20.8161 5.01886L20.2761 5.19867C20.1574 5.23822 20.0495 5.30486 19.9611 5.39333C19.8726 5.4818 19.8059 5.58966 19.7664 5.70836L19.5865 6.24825C19.5799 6.26837 19.567 6.28588 19.5499 6.29829C19.5327 6.3107 19.512 6.31738 19.4908 6.31738C19.4696 6.31738 19.449 6.3107 19.4318 6.29829C19.4146 6.28588 19.4018 6.26837 19.3951 6.24825L19.2153 5.70836C19.1757 5.58966 19.1091 5.4818 19.0206 5.39333C18.9321 5.30486 18.8242 5.23822 18.7055 5.19867L18.1656 5.01886ZM17.6781 1.73444C17.6649 1.72985 17.6534 1.72126 17.6453 1.70985C17.6372 1.69844 17.6328 1.68479 17.6328 1.67079C17.6328 1.65678 17.6372 1.64313 17.6453 1.63172C17.6534 1.62031 17.6649 1.61172 17.6781 1.60713L18.0378 1.48726C18.1986 1.43383 18.3245 1.30791 18.3779 1.14716L18.4978 0.787537C18.5024 0.774307 18.511 0.762835 18.5224 0.754716C18.5338 0.746597 18.5475 0.742234 18.5615 0.742234C18.5755 0.742234 18.5891 0.746597 18.6005 0.754716C18.6119 0.762835 18.6205 0.774307 18.6251 0.787537L18.745 1.14716C18.7714 1.22638 18.8158 1.29837 18.8749 1.3574C18.9339 1.41644 19.0059 1.4609 19.0852 1.48726L19.4448 1.60713C19.458 1.61172 19.4695 1.62031 19.4776 1.63172C19.4858 1.64313 19.4901 1.65678 19.4901 1.67079C19.4901 1.68479 19.4858 1.69844 19.4776 1.70985C19.4695 1.72126 19.458 1.72985 19.4448 1.73444L19.0852 1.85431C19.0059 1.88067 18.9339 1.92513 18.8749 1.98417C18.8158 2.0432 18.7714 2.11519 18.745 2.19442L18.6251 2.55357C18.6205 2.5668 18.6119 2.57827 18.6005 2.58639C18.5891 2.59451 18.5755 2.59887 18.5615 2.59887C18.5475 2.59887 18.5338 2.59451 18.5224 2.58639C18.511 2.57827 18.5024 2.5668 18.4978 2.55357L18.3779 2.19395C18.3245 2.03319 18.1986 1.90728 18.0378 1.85385L17.6781 1.73444Z" fill="white"/>
<path d="M22.1277 22.2565L17.1557 17.1159C18.3527 15.4684 18.9989 13.4629 18.9967 11.4023C18.9967 6.13881 14.8549 1.85657 9.76398 1.85657C4.67309 1.85657 0.53125 6.13881 0.53125 11.4023C0.53125 16.6657 4.67309 20.948 9.76398 20.948C11.7571 20.9502 13.6967 20.2821 15.2903 19.0445L20.2623 24.1851C20.514 24.4177 20.8423 24.5418 21.1797 24.5321C21.5171 24.5223 21.8382 24.3794 22.0769 24.1326C22.3156 23.8858 22.4539 23.5539 22.4633 23.205C22.4727 22.8561 22.3526 22.5167 22.1277 22.2565ZM3.16917 11.4023C3.16917 10.0537 3.55595 8.73547 4.2806 7.6142C5.00525 6.49292 6.03521 5.619 7.24026 5.10293C8.4453 4.58686 9.7713 4.45184 11.0506 4.71493C12.3298 4.97801 13.5049 5.6274 14.4272 6.58096C15.3495 7.53453 15.9776 8.74945 16.2321 10.0721C16.4865 11.3947 16.3559 12.7657 15.8568 14.0116C15.3576 15.2574 14.5124 16.3223 13.4279 17.0715C12.3434 17.8207 11.0683 18.2206 9.76398 18.2206C8.01558 18.2185 6.33938 17.4994 5.10307 16.2212C3.86675 14.943 3.17127 13.21 3.16917 11.4023Z" fill="white"/>
</svg>
