
<svg width="18" height="22" viewBox="0 0 18 22" fill="none" xmlns="http://www.w3.org/2000/svg">
<path d="M8.75113 12.252C8.72449 12.696 8.14895 12.8502 7.90387 12.479L6.46616 10.2999C6.14989 9.82093 5.72642 9.42221 5.22931 9.13535C4.73219 8.84849 4.17511 8.68136 3.60221 8.64723L0.997647 8.49121C0.553668 8.46455 0.399435 7.88894 0.7706 7.64386L2.94945 6.20613C3.42835 5.88986 3.82701 5.46636 4.11381 4.96922C4.40062 4.47208 4.5677 3.91495 4.6018 3.342L4.75766 0.737193C4.76303 0.640088 4.79893 0.54716 4.86024 0.471671C4.92155 0.396183 5.00513 0.341988 5.09906 0.316819C5.19299 0.29165 5.29247 0.296793 5.38331 0.331515C5.47415 0.366236 5.5517 0.428763 5.60491 0.510171L7.04262 2.68931C7.35873 3.16817 7.78199 3.56685 8.27888 3.85377C8.77576 4.14068 9.33262 4.30794 9.90534 4.34231L12.5111 4.49799C12.6082 4.50337 12.7011 4.53928 12.7766 4.6006C12.8521 4.66192 12.9063 4.74551 12.9315 4.83945C12.9567 4.9334 12.9515 5.03289 12.9168 5.12373C12.8821 5.21458 12.8196 5.29214 12.7382 5.34534L10.5593 6.78307C10.0805 7.09919 9.68191 7.52247 9.39505 8.01939C9.1082 8.5163 8.94098 9.0732 8.90665 9.64597L8.75113 12.252ZM15.2098 17.2719C15.2064 17.3301 15.1848 17.3858 15.148 17.4311C15.1111 17.4763 15.061 17.5088 15.0046 17.5239C14.9483 17.539 14.8886 17.5359 14.8341 17.5152C14.7796 17.4944 14.733 17.457 14.701 17.4083L13.8384 16.101C13.4533 15.5184 12.8175 15.1513 12.1205 15.109L10.5572 15.0156C10.499 15.0122 10.4433 14.9905 10.3981 14.9537C10.3529 14.9169 10.3204 14.8667 10.3053 14.8103C10.2902 14.754 10.2932 14.6943 10.314 14.6398C10.3347 14.5853 10.3721 14.5387 10.4209 14.5067L11.7279 13.6441C12.0153 13.4544 12.2545 13.2004 12.4267 12.9022C12.5988 12.604 12.6991 12.2698 12.7197 11.926L12.8131 10.3627C12.8165 10.3044 12.8381 10.2487 12.875 10.2035C12.9118 10.1583 12.9619 10.1258 13.0183 10.1107C13.0746 10.0956 13.1343 10.0987 13.1888 10.1194C13.2433 10.1402 13.2899 10.1776 13.3219 10.2263L14.1845 11.5335C14.3742 11.8209 14.6282 12.0602 14.9264 12.2324C15.2246 12.4046 15.5588 12.5049 15.9025 12.5255L17.4657 12.619C17.5239 12.6224 17.5796 12.644 17.6248 12.6809C17.6701 12.7177 17.7025 12.7679 17.7176 12.8242C17.7327 12.8806 17.7297 12.9402 17.7089 12.9948C17.6882 13.0493 17.6508 13.0959 17.602 13.1279L16.295 13.9905C16.0076 14.1802 15.7684 14.4342 15.5962 14.7324C15.4241 15.0306 15.3238 15.3648 15.3032 15.7085L15.2098 17.2719ZM6.82632 20.907C6.82355 20.9455 6.80888 20.9821 6.78434 21.0118C6.7598 21.0415 6.72661 21.0628 6.68939 21.0728C6.65217 21.0828 6.61276 21.0809 6.57666 21.0674C6.54055 21.054 6.50953 21.0296 6.48791 20.9977L5.91309 20.127C5.65655 19.7377 5.23215 19.4926 4.76676 19.4651L3.72542 19.4026C3.68699 19.3998 3.65037 19.3851 3.62066 19.3606C3.59096 19.336 3.56963 19.3028 3.55966 19.2656C3.54968 19.2284 3.55155 19.189 3.56501 19.1529C3.57847 19.1168 3.60284 19.0857 3.63474 19.0641L4.50529 18.4893C4.69711 18.3628 4.8568 18.1933 4.97168 17.9943C5.08655 17.7953 5.15346 17.5723 5.16708 17.3429L5.22956 16.3015C5.23233 16.263 5.247 16.2264 5.27154 16.1967C5.29608 16.167 5.32927 16.1457 5.36649 16.1357C5.40371 16.1257 5.44312 16.1276 5.47922 16.141C5.51533 16.1545 5.54635 16.1789 5.56797 16.2108L6.14279 17.0814C6.26928 17.2733 6.43874 17.433 6.63774 17.5479C6.83673 17.6628 7.05976 17.7297 7.28913 17.7434L8.32922 17.8062C8.36766 17.809 8.40427 17.8237 8.43398 17.8482C8.46369 17.8728 8.48501 17.906 8.49499 17.9432C8.50496 17.9804 8.50309 18.0198 8.48963 18.0559C8.47618 18.092 8.45181 18.1231 8.41991 18.1447L7.54936 18.7195C7.16009 18.9761 6.91508 19.4005 6.88756 19.8659L6.82632 20.907Z" fill="#3F98FF"/>
</svg>
