<svg width="34" height="35" viewBox="0 0 34 35" fill="none" xmlns="http://www.w3.org/2000/svg">
<rect y="0.689941" width="34" height="34" rx="17" fill="url(#paint0_linear_191_3064)"/>
<g filter="url(#filter0_i_191_3064)">
<rect x="1" y="1.68994" width="32" height="32" rx="16" fill="#070719"/>
<g clip-path="url(#clip0_191_3064)">
<path d="M19.352 11.744H20.01L20.248 11.786L20.346 11.814C20.5047 11.8513 20.6167 11.884 20.682 11.912C20.822 11.968 20.9527 12.0263 21.074 12.087C21.1953 12.1476 21.3027 12.2153 21.396 12.29C21.4613 12.3366 21.55 12.4066 21.662 12.5C21.7367 12.5746 21.858 12.598 22.026 12.57L22.558 12.416L22.684 12.374C22.88 12.2993 23.0247 12.2386 23.118 12.192C23.3047 12.108 23.4167 12.052 23.454 12.024L23.524 11.996V11.982H23.538L23.552 11.968H23.566L23.594 11.94H23.608V11.982L23.594 11.996V12.024H23.58V12.038L23.566 12.066C23.566 12.0846 23.5637 12.101 23.559 12.115C23.5543 12.129 23.517 12.206 23.447 12.346C23.377 12.486 23.2813 12.64 23.16 12.808C23.0853 12.9013 22.9827 13.0133 22.852 13.144C22.7867 13.1906 22.7283 13.2396 22.677 13.291C22.6257 13.3423 22.586 13.3726 22.558 13.382L22.488 13.438H22.474V13.452H22.46L22.446 13.466H22.432V13.48H22.418V13.494H22.404H22.474L22.824 13.41C23.0667 13.3633 23.2907 13.3073 23.496 13.242L23.846 13.13L23.902 13.102H23.916L23.93 13.088H23.944L23.972 13.074H24V13.102H23.986V13.116H23.972V13.13H23.958V13.144H23.944V13.158C23.944 13.1673 23.888 13.242 23.776 13.382L23.692 13.494C23.6453 13.5593 23.6173 13.592 23.608 13.592C23.5987 13.592 23.594 13.5966 23.594 13.606L23.58 13.62C23.5613 13.648 23.468 13.7413 23.3 13.9C23.188 14.0213 23.0293 14.166 22.824 14.334C22.6653 14.4646 22.586 14.6186 22.586 14.796C22.586 14.8986 22.5767 15.0806 22.558 15.342V15.426C22.5487 15.5566 22.5207 15.7666 22.474 16.056L22.46 16.182C22.4133 16.462 22.3433 16.763 22.25 17.085C22.1567 17.407 22.0353 17.7406 21.886 18.086C21.774 18.3753 21.6293 18.6646 21.452 18.954C21.3213 19.1966 21.186 19.416 21.046 19.612L20.654 20.116C20.5327 20.2653 20.3693 20.4426 20.164 20.648L19.828 20.97L19.59 21.166C19.506 21.2313 19.38 21.3293 19.212 21.46L18.988 21.614C18.8387 21.7166 18.7313 21.7866 18.666 21.824L18.162 22.09C17.9193 22.2113 17.7047 22.3046 17.518 22.37C17.406 22.4166 17.224 22.482 16.972 22.566L16.804 22.622C16.5427 22.6966 16.3 22.7526 16.076 22.79C15.7773 22.846 15.5113 22.8833 15.278 22.902L14.83 22.944H14.004L13.892 22.93C13.808 22.93 13.752 22.9253 13.724 22.916L13.192 22.86C12.9027 22.8133 12.6647 22.7713 12.478 22.734C12.3847 22.7153 12.1933 22.6546 11.904 22.552L11.708 22.496C11.2973 22.3466 11.008 22.23 10.84 22.146C10.5787 22.0153 10.4247 21.9406 10.378 21.922L10.294 21.866C10.2473 21.838 10.21 21.8146 10.182 21.796L10.07 21.726H10.056L10.042 21.712H10.028V21.698H10.014V21.684H10V21.67H10.084C10.1027 21.6793 10.154 21.684 10.238 21.684L10.392 21.698H10.924C11.1853 21.6793 11.3813 21.6606 11.512 21.642C11.68 21.614 11.9133 21.5626 12.212 21.488C12.492 21.4133 12.7393 21.3293 12.954 21.236L13.43 21.026C13.5513 20.9606 13.696 20.872 13.864 20.76L14.158 20.564V20.55H14.172L14.186 20.536H14.2V20.522L14.214 20.508L14.116 20.494C14.032 20.494 13.9667 20.4893 13.92 20.48C13.836 20.48 13.738 20.4613 13.626 20.424C13.5513 20.4053 13.43 20.368 13.262 20.312L13.192 20.284C13.0893 20.2373 12.9353 20.158 12.73 20.046L12.632 19.976C12.52 19.9013 12.4453 19.8453 12.408 19.808L12.156 19.556C12.1093 19.5093 12.0393 19.4253 11.946 19.304L11.89 19.22C11.8247 19.1173 11.7547 18.982 11.68 18.814L11.568 18.59V18.576L11.554 18.562V18.534H11.596L11.736 18.562C11.792 18.5713 11.9367 18.576 12.17 18.576L12.38 18.562C12.4827 18.562 12.548 18.5573 12.576 18.548L12.744 18.52L12.772 18.506H12.8V18.492H12.814L12.786 18.478H12.772L12.744 18.464H12.688C12.6787 18.4546 12.6647 18.45 12.646 18.45L12.604 18.436C12.5387 18.408 12.422 18.3613 12.254 18.296C12.058 18.2026 11.9133 18.128 11.82 18.072C11.7453 18.016 11.6427 17.932 11.512 17.82C11.4467 17.764 11.344 17.6566 11.204 17.498L11.176 17.47C11.036 17.2926 10.9333 17.1293 10.868 16.98C10.7747 16.8026 10.7047 16.6253 10.658 16.448C10.602 16.224 10.5693 16.0513 10.56 15.93L10.546 15.678H10.574L10.588 15.692H10.602L10.616 15.706L10.812 15.79C10.9893 15.8646 11.1527 15.916 11.302 15.944L11.652 16.014H11.82H11.806V16H11.792V15.986H11.778L11.764 15.972H11.75L11.624 15.874C11.5773 15.8366 11.5027 15.7666 11.4 15.664L11.176 15.412C11.1387 15.3653 11.092 15.3 11.036 15.216L10.966 15.118C10.9193 15.0153 10.8587 14.88 10.784 14.712C10.7093 14.5066 10.6627 14.348 10.644 14.236C10.6067 14.096 10.588 13.9373 10.588 13.76C10.5787 13.6853 10.5787 13.5873 10.588 13.466V13.354C10.6067 13.242 10.6347 13.116 10.672 12.976L10.686 12.934C10.742 12.7566 10.7933 12.6213 10.84 12.528L10.938 12.29L10.952 12.276V12.248H10.98V12.262H10.994V12.276L11.008 12.29V12.304L11.176 12.486C11.2507 12.57 11.386 12.71 11.582 12.906C11.722 13.046 11.8107 13.1253 11.848 13.144C11.8573 13.144 11.8667 13.1533 11.876 13.172L11.904 13.2C11.932 13.228 12.016 13.298 12.156 13.41C12.2307 13.4753 12.3753 13.5826 12.59 13.732L12.716 13.816C12.9773 13.984 13.234 14.138 13.486 14.278C13.878 14.4646 14.1813 14.6 14.396 14.684L14.466 14.712C14.802 14.824 15.0073 14.8893 15.082 14.908C15.2407 14.964 15.4647 15.0153 15.754 15.062C15.8847 15.09 16.0527 15.118 16.258 15.146L16.468 15.174L16.79 15.202H16.874V15.16L16.846 15.006C16.8273 14.8753 16.818 14.7306 16.818 14.572C16.818 14.3666 16.8343 14.194 16.867 14.054C16.8997 13.914 16.944 13.76 17 13.592C17.056 13.424 17.112 13.2886 17.168 13.186C17.2053 13.1206 17.28 13.0156 17.392 12.871C17.504 12.7263 17.6253 12.5933 17.756 12.472C17.9427 12.3226 18.1107 12.206 18.26 12.122C18.428 12.0286 18.6007 11.9493 18.778 11.884C18.9553 11.8186 19.0907 11.7813 19.184 11.772L19.352 11.744Z" fill="white"/>
</g>
</g>
<defs>
<filter id="filter0_i_191_3064" x="1" y="-0.310059" width="32" height="34" filterUnits="userSpaceOnUse" color-interpolation-filters="sRGB">
<feFlood flood-opacity="0" result="BackgroundImageFix"/>
<feBlend mode="normal" in="SourceGraphic" in2="BackgroundImageFix" result="shape"/>
<feColorMatrix in="SourceAlpha" type="matrix" values="0 0 0 0 0 0 0 0 0 0 0 0 0 0 0 0 0 0 127 0" result="hardAlpha"/>
<feOffset dy="-2"/>
<feGaussianBlur stdDeviation="6"/>
<feComposite in2="hardAlpha" operator="arithmetic" k2="-1" k3="1"/>
<feColorMatrix type="matrix" values="0 0 0 0 0.239216 0 0 0 0 0.588235 0 0 0 0 1 0 0 0 0.4 0"/>
<feBlend mode="normal" in2="shape" result="effect1_innerShadow_191_3064"/>
</filter>
<linearGradient id="paint0_linear_191_3064" x1="0" y1="17.6899" x2="34" y2="17.6899" gradientUnits="userSpaceOnUse">
<stop stop-color="#3A5AFF"/>
<stop offset="1" stop-color="#5EBBFF"/>
</linearGradient>
<clipPath id="clip0_191_3064">
<rect width="14" height="14" fill="white" transform="matrix(1 0 0 -1 10 24.1899)"/>
</clipPath>
</defs>
</svg>
