<svg width="40" height="40" viewBox="0 0 40 40" fill="none" xmlns="http://www.w3.org/2000/svg">
<rect width="40" height="40" rx="20" fill="url(#paint0_linear_238_1579)"/>
<g clip-path="url(#clip0_238_1579)">
<path d="M12 16C12 14.343 13.343 13 15 13H25C26.657 13 28 14.343 28 16V26C28 26.387 27.642 26.674 27.265 26.59L20.646 25.119C20.289 25.04 19.926 25 19.561 25H15C13.343 25 12 23.657 12 22V16Z" stroke="white" stroke-width="2" stroke-miterlimit="10"/>
<path d="M14 19C14 17.895 14.895 17 16 17C17.105 17 18 17.895 18 19C18 20.105 17.105 21 16 21C14.895 21 14 20.105 14 19Z" fill="white"/>
<path d="M18 19C18 17.895 18.895 17 20 17C21.105 17 22 17.895 22 19C22 20.105 21.105 21 20 21C18.895 21 18 20.105 18 19Z" fill="white"/>
<path d="M22 19C22 17.895 22.895 17 24 17C25.105 17 26 17.895 26 19C26 20.105 25.105 21 24 21C22.895 21 22 20.105 22 19Z" fill="white"/>
</g>
<defs>
<linearGradient id="paint0_linear_238_1579" x1="20" y1="0" x2="20" y2="40" gradientUnits="userSpaceOnUse">
<stop stop-color="white" stop-opacity="0.2"/>
<stop offset="1" stop-color="white" stop-opacity="0"/>
</linearGradient>
<clipPath id="clip0_238_1579">
<rect width="20" height="20" fill="white" transform="translate(10 10)"/>
</clipPath>
</defs>
</svg>
